<?xml version="1.0" encoding="utf-8" standalone="no"?>
<!DOCTYPE svg PUBLIC "-//W3C//DTD SVG 1.1//EN"
  "http://www.w3.org/Graphics/SVG/1.1/DTD/svg11.dtd">
<!-- Created with matplotlib (https://matplotlib.org/) -->
<svg height="616.704844pt" version="1.1" viewBox="0 0 948.377578 616.704844" width="948.377578pt" xmlns="http://www.w3.org/2000/svg" xmlns:xlink="http://www.w3.org/1999/xlink">
 <defs>
  <style type="text/css">
*{stroke-linecap:butt;stroke-linejoin:round;}
  </style>
 </defs>
 <g id="figure_1">
  <g id="patch_1">
   <path d="M 0 616.704844 
L 948.377578 616.704844 
L 948.377578 0 
L 0 0 
z
" style="fill:#ffffff;"/>
  </g>
  <g id="axes_1">
   <g id="patch_2">
    <path d="M 86.532656 569.844375 
L 756.132656 569.844375 
L 756.132656 26.244375 
L 86.532656 26.244375 
z
" style="fill:#ffffff;"/>
   </g>
   <g id="matplotlib.axis_1">
    <g id="xtick_1">
     <g id="line2d_1">
      <path clip-path="url(#pde8ce3dced)" d="M 116.96902 569.844375 
L 116.96902 26.244375 
" style="fill:none;stroke:#cccccc;stroke-linecap:round;stroke-width:1.5;"/>
     </g>
     <g id="line2d_2"/>
     <g id="text_1">
      <!-- 0 -->
      <defs>
       <path d="M 51.703125 34.421875 
Q 51.703125 24.515625 49.828125 17.75 
Q 47.953125 10.984375 44.703125 6.8125 
Q 41.453125 2.640625 37.0625 0.828125 
Q 32.671875 -0.984375 27.6875 -0.984375 
Q 22.65625 -0.984375 18.3125 0.828125 
Q 13.96875 2.640625 10.765625 6.78125 
Q 7.5625 10.9375 5.734375 17.703125 
Q 3.90625 24.46875 3.90625 34.421875 
Q 3.90625 44.828125 5.734375 51.640625 
Q 7.5625 58.453125 10.78125 62.5 
Q 14.015625 66.546875 18.40625 68.1875 
Q 22.796875 69.828125 27.984375 69.828125 
Q 32.90625 69.828125 37.21875 68.1875 
Q 41.546875 66.546875 44.765625 62.5 
Q 48 58.453125 49.84375 51.640625 
Q 51.703125 44.828125 51.703125 34.421875 
z
M 42.78125 34.421875 
Q 42.78125 42.625 41.796875 48.0625 
Q 40.828125 53.515625 38.921875 56.765625 
Q 37.015625 60.015625 34.25 61.359375 
Q 31.5 62.703125 27.984375 62.703125 
Q 24.265625 62.703125 21.4375 61.328125 
Q 18.609375 59.96875 16.671875 56.71875 
Q 14.75 53.46875 13.765625 48.015625 
Q 12.796875 42.578125 12.796875 34.421875 
Q 12.796875 26.515625 13.796875 21.09375 
Q 14.796875 15.671875 16.71875 12.375 
Q 18.65625 9.078125 21.4375 7.640625 
Q 24.21875 6.203125 27.78125 6.203125 
Q 31.25 6.203125 34.03125 7.640625 
Q 36.8125 9.078125 38.734375 12.375 
Q 40.671875 15.671875 41.71875 21.09375 
Q 42.78125 26.515625 42.78125 34.421875 
z
" id="LiberationSans-48"/>
      </defs>
      <g style="fill:#262626;" transform="translate(112.381246 585.301719)scale(0.165 -0.165)">
       <use xlink:href="#LiberationSans-48"/>
      </g>
     </g>
    </g>
    <g id="xtick_2">
     <g id="line2d_3">
      <path clip-path="url(#pde8ce3dced)" d="M 193.059929 569.844375 
L 193.059929 26.244375 
" style="fill:none;stroke:#cccccc;stroke-linecap:round;stroke-width:1.5;"/>
     </g>
     <g id="line2d_4"/>
     <g id="text_2">
      <!-- 5 -->
      <defs>
       <path d="M 51.421875 22.40625 
Q 51.421875 17.234375 49.859375 12.9375 
Q 48.296875 8.640625 45.21875 5.53125 
Q 42.140625 2.4375 37.578125 0.71875 
Q 33.015625 -0.984375 27 -0.984375 
Q 21.578125 -0.984375 17.546875 0.28125 
Q 13.53125 1.5625 10.734375 3.78125 
Q 7.953125 6 6.3125 8.984375 
Q 4.6875 11.96875 4 15.375 
L 12.890625 16.40625 
Q 13.421875 14.453125 14.390625 12.625 
Q 15.375 10.796875 17.0625 9.34375 
Q 18.75 7.90625 21.21875 7.046875 
Q 23.6875 6.203125 27.203125 6.203125 
Q 30.609375 6.203125 33.390625 7.25 
Q 36.1875 8.296875 38.15625 10.34375 
Q 40.140625 12.40625 41.203125 15.375 
Q 42.28125 18.359375 42.28125 22.21875 
Q 42.28125 25.390625 41.25 28.046875 
Q 40.234375 30.71875 38.328125 32.640625 
Q 36.421875 34.578125 33.65625 35.640625 
Q 30.90625 36.71875 27.390625 36.71875 
Q 25.203125 36.71875 23.34375 36.328125 
Q 21.484375 35.9375 19.890625 35.25 
Q 18.3125 34.578125 17.015625 33.671875 
Q 15.71875 32.765625 14.59375 31.78125 
L 6 31.78125 
L 8.296875 68.796875 
L 47.40625 68.796875 
L 47.40625 61.328125 
L 16.3125 61.328125 
L 14.984375 39.5 
Q 17.328125 41.3125 20.84375 42.59375 
Q 24.359375 43.890625 29.203125 43.890625 
Q 34.328125 43.890625 38.421875 42.328125 
Q 42.53125 40.765625 45.40625 37.90625 
Q 48.296875 35.0625 49.859375 31.109375 
Q 51.421875 27.15625 51.421875 22.40625 
z
" id="LiberationSans-53"/>
      </defs>
      <g style="fill:#262626;" transform="translate(188.472156 585.301719)scale(0.165 -0.165)">
       <use xlink:href="#LiberationSans-53"/>
      </g>
     </g>
    </g>
    <g id="xtick_3">
     <g id="line2d_5">
      <path clip-path="url(#pde8ce3dced)" d="M 269.150838 569.844375 
L 269.150838 26.244375 
" style="fill:none;stroke:#cccccc;stroke-linecap:round;stroke-width:1.5;"/>
     </g>
     <g id="line2d_6"/>
     <g id="text_3">
      <!-- 10 -->
      <defs>
       <path d="M 7.625 0 
L 7.625 7.46875 
L 25.140625 7.46875 
L 25.140625 60.40625 
L 9.625 49.3125 
L 9.625 57.625 
L 25.875 68.796875 
L 33.984375 68.796875 
L 33.984375 7.46875 
L 50.734375 7.46875 
L 50.734375 0 
z
" id="LiberationSans-49"/>
      </defs>
      <g style="fill:#262626;" transform="translate(259.975291 585.301719)scale(0.165 -0.165)">
       <use xlink:href="#LiberationSans-49"/>
       <use x="55.615234" xlink:href="#LiberationSans-48"/>
      </g>
     </g>
    </g>
    <g id="xtick_4">
     <g id="line2d_7">
      <path clip-path="url(#pde8ce3dced)" d="M 345.241747 569.844375 
L 345.241747 26.244375 
" style="fill:none;stroke:#cccccc;stroke-linecap:round;stroke-width:1.5;"/>
     </g>
     <g id="line2d_8"/>
     <g id="text_4">
      <!-- 15 -->
      <g style="fill:#262626;" transform="translate(336.0662 585.301719)scale(0.165 -0.165)">
       <use xlink:href="#LiberationSans-49"/>
       <use x="55.615234" xlink:href="#LiberationSans-53"/>
      </g>
     </g>
    </g>
    <g id="xtick_5">
     <g id="line2d_9">
      <path clip-path="url(#pde8ce3dced)" d="M 421.332656 569.844375 
L 421.332656 26.244375 
" style="fill:none;stroke:#cccccc;stroke-linecap:round;stroke-width:1.5;"/>
     </g>
     <g id="line2d_10"/>
     <g id="text_5">
      <!-- 20 -->
      <defs>
       <path d="M 5.03125 0 
L 5.03125 6.203125 
Q 7.515625 11.921875 11.109375 16.28125 
Q 14.703125 20.65625 18.65625 24.1875 
Q 22.609375 27.734375 26.484375 30.765625 
Q 30.375 33.796875 33.5 36.8125 
Q 36.625 39.84375 38.546875 43.15625 
Q 40.484375 46.484375 40.484375 50.6875 
Q 40.484375 53.609375 39.59375 55.828125 
Q 38.71875 58.0625 37.0625 59.5625 
Q 35.40625 61.078125 33.078125 61.828125 
Q 30.765625 62.59375 27.9375 62.59375 
Q 25.296875 62.59375 22.96875 61.859375 
Q 20.65625 61.140625 18.84375 59.671875 
Q 17.046875 58.203125 15.890625 56.03125 
Q 14.75 53.859375 14.40625 50.984375 
L 5.421875 51.8125 
Q 5.859375 55.515625 7.46875 58.78125 
Q 9.078125 62.0625 11.90625 64.53125 
Q 14.75 67 18.71875 68.40625 
Q 22.703125 69.828125 27.9375 69.828125 
Q 33.0625 69.828125 37.0625 68.609375 
Q 41.0625 67.390625 43.8125 64.984375 
Q 46.578125 62.59375 48.046875 59.078125 
Q 49.515625 55.5625 49.515625 50.984375 
Q 49.515625 47.515625 48.265625 44.390625 
Q 47.015625 41.265625 44.9375 38.421875 
Q 42.875 35.59375 40.140625 32.953125 
Q 37.40625 30.328125 34.421875 27.8125 
Q 31.453125 25.296875 28.421875 22.828125 
Q 25.390625 20.359375 22.71875 17.859375 
Q 20.0625 15.375 17.96875 12.8125 
Q 15.875 10.25 14.703125 7.46875 
L 50.59375 7.46875 
L 50.59375 0 
z
" id="LiberationSans-50"/>
      </defs>
      <g style="fill:#262626;" transform="translate(412.157109 585.301719)scale(0.165 -0.165)">
       <use xlink:href="#LiberationSans-50"/>
       <use x="55.615234" xlink:href="#LiberationSans-48"/>
      </g>
     </g>
    </g>
    <g id="xtick_6">
     <g id="line2d_11">
      <path clip-path="url(#pde8ce3dced)" d="M 497.423565 569.844375 
L 497.423565 26.244375 
" style="fill:none;stroke:#cccccc;stroke-linecap:round;stroke-width:1.5;"/>
     </g>
     <g id="line2d_12"/>
     <g id="text_6">
      <!-- 25 -->
      <g style="fill:#262626;" transform="translate(488.248018 585.301719)scale(0.165 -0.165)">
       <use xlink:href="#LiberationSans-50"/>
       <use x="55.615234" xlink:href="#LiberationSans-53"/>
      </g>
     </g>
    </g>
    <g id="xtick_7">
     <g id="line2d_13">
      <path clip-path="url(#pde8ce3dced)" d="M 573.514474 569.844375 
L 573.514474 26.244375 
" style="fill:none;stroke:#cccccc;stroke-linecap:round;stroke-width:1.5;"/>
     </g>
     <g id="line2d_14"/>
     <g id="text_7">
      <!-- 30 -->
      <defs>
       <path d="M 51.21875 19 
Q 51.21875 14.265625 49.671875 10.546875 
Q 48.140625 6.84375 45.1875 4.265625 
Q 42.234375 1.703125 37.859375 0.359375 
Q 33.5 -0.984375 27.875 -0.984375 
Q 21.484375 -0.984375 17.109375 0.609375 
Q 12.75 2.203125 9.90625 4.8125 
Q 7.078125 7.421875 5.65625 10.765625 
Q 4.25 14.109375 3.8125 17.671875 
L 12.890625 18.5 
Q 13.28125 15.765625 14.328125 13.515625 
Q 15.375 11.28125 17.1875 9.671875 
Q 19 8.0625 21.625 7.171875 
Q 24.265625 6.296875 27.875 6.296875 
Q 34.515625 6.296875 38.296875 9.5625 
Q 42.09375 12.84375 42.09375 19.28125 
Q 42.09375 23.09375 40.40625 25.40625 
Q 38.71875 27.734375 36.203125 29.03125 
Q 33.6875 30.328125 30.734375 30.765625 
Q 27.78125 31.203125 25.296875 31.203125 
L 20.3125 31.203125 
L 20.3125 38.8125 
L 25.09375 38.8125 
Q 27.59375 38.8125 30.265625 39.328125 
Q 32.953125 39.84375 35.171875 41.1875 
Q 37.40625 42.53125 38.84375 44.828125 
Q 40.28125 47.125 40.28125 50.6875 
Q 40.28125 56.203125 37.03125 59.390625 
Q 33.796875 62.59375 27.390625 62.59375 
Q 21.578125 62.59375 17.984375 59.609375 
Q 14.40625 56.640625 13.8125 51.21875 
L 4.984375 51.90625 
Q 5.515625 56.453125 7.46875 59.8125 
Q 9.421875 63.1875 12.421875 65.40625 
Q 15.4375 67.625 19.28125 68.71875 
Q 23.140625 69.828125 27.484375 69.828125 
Q 33.25 69.828125 37.390625 68.375 
Q 41.546875 66.9375 44.1875 64.46875 
Q 46.828125 62.015625 48.0625 58.6875 
Q 49.3125 55.375 49.3125 51.609375 
Q 49.3125 48.578125 48.484375 45.9375 
Q 47.65625 43.3125 45.890625 41.203125 
Q 44.140625 39.109375 41.421875 37.59375 
Q 38.71875 36.078125 34.90625 35.296875 
L 34.90625 35.109375 
Q 39.0625 34.671875 42.140625 33.21875 
Q 45.21875 31.78125 47.21875 29.625 
Q 49.21875 27.484375 50.21875 24.75 
Q 51.21875 22.015625 51.21875 19 
z
" id="LiberationSans-51"/>
      </defs>
      <g style="fill:#262626;" transform="translate(564.338928 585.301719)scale(0.165 -0.165)">
       <use xlink:href="#LiberationSans-51"/>
       <use x="55.615234" xlink:href="#LiberationSans-48"/>
      </g>
     </g>
    </g>
    <g id="xtick_8">
     <g id="line2d_15">
      <path clip-path="url(#pde8ce3dced)" d="M 649.605384 569.844375 
L 649.605384 26.244375 
" style="fill:none;stroke:#cccccc;stroke-linecap:round;stroke-width:1.5;"/>
     </g>
     <g id="line2d_16"/>
     <g id="text_8">
      <!-- 35 -->
      <g style="fill:#262626;" transform="translate(640.429837 585.301719)scale(0.165 -0.165)">
       <use xlink:href="#LiberationSans-51"/>
       <use x="55.615234" xlink:href="#LiberationSans-53"/>
      </g>
     </g>
    </g>
    <g id="xtick_9">
     <g id="line2d_17">
      <path clip-path="url(#pde8ce3dced)" d="M 725.696293 569.844375 
L 725.696293 26.244375 
" style="fill:none;stroke:#cccccc;stroke-linecap:round;stroke-width:1.5;"/>
     </g>
     <g id="line2d_18"/>
     <g id="text_9">
      <!-- 40 -->
      <defs>
       <path d="M 43.015625 15.578125 
L 43.015625 0 
L 34.71875 0 
L 34.71875 15.578125 
L 2.296875 15.578125 
L 2.296875 22.40625 
L 33.796875 68.796875 
L 43.015625 68.796875 
L 43.015625 22.515625 
L 52.6875 22.515625 
L 52.6875 15.578125 
z
M 34.71875 58.890625 
Q 34.625 58.640625 34.234375 57.9375 
Q 33.84375 57.234375 33.34375 56.34375 
Q 32.859375 55.46875 32.34375 54.5625 
Q 31.84375 53.65625 31.453125 53.078125 
L 13.8125 27.09375 
Q 13.578125 26.703125 13.109375 26.0625 
Q 12.640625 25.4375 12.15625 24.78125 
Q 11.671875 24.125 11.171875 23.484375 
Q 10.6875 22.859375 10.40625 22.515625 
L 34.71875 22.515625 
z
" id="LiberationSans-52"/>
      </defs>
      <g style="fill:#262626;" transform="translate(716.520746 585.301719)scale(0.165 -0.165)">
       <use xlink:href="#LiberationSans-52"/>
       <use x="55.615234" xlink:href="#LiberationSans-48"/>
      </g>
     </g>
    </g>
    <g id="text_10">
     <!-- Days from first 50 confirmed cases -->
     <defs>
      <path d="M 67.4375 35.109375 
Q 67.4375 26.515625 64.84375 19.9375 
Q 62.25 13.375 57.75 8.953125 
Q 53.265625 4.546875 47.140625 2.265625 
Q 41.015625 0 33.9375 0 
L 8.203125 0 
L 8.203125 68.796875 
L 30.953125 68.796875 
Q 38.921875 68.796875 45.625 66.8125 
Q 52.34375 64.84375 57.171875 60.71875 
Q 62.015625 56.59375 64.71875 50.234375 
Q 67.4375 43.890625 67.4375 35.109375 
z
M 58.0625 35.109375 
Q 58.0625 42.09375 56.046875 47.046875 
Q 54.046875 52 50.4375 55.171875 
Q 46.828125 58.34375 41.796875 59.828125 
Q 36.765625 61.328125 30.765625 61.328125 
L 17.53125 61.328125 
L 17.53125 7.46875 
L 32.859375 7.46875 
Q 38.28125 7.46875 42.890625 9.21875 
Q 47.515625 10.984375 50.875 14.453125 
Q 54.25 17.921875 56.15625 23.09375 
Q 58.0625 28.265625 58.0625 35.109375 
z
" id="LiberationSans-68"/>
      <path d="M 20.21875 -0.984375 
Q 12.25 -0.984375 8.25 3.21875 
Q 4.25 7.421875 4.25 14.75 
Q 4.25 19.96875 6.21875 23.3125 
Q 8.203125 26.65625 11.390625 28.5625 
Q 14.59375 30.46875 18.6875 31.203125 
Q 22.796875 31.9375 27.046875 32.03125 
L 38.921875 32.234375 
L 38.921875 35.109375 
Q 38.921875 38.375 38.234375 40.671875 
Q 37.546875 42.96875 36.125 44.375 
Q 34.71875 45.796875 32.59375 46.453125 
Q 30.46875 47.125 27.59375 47.125 
Q 25.046875 47.125 23 46.75 
Q 20.953125 46.390625 19.4375 45.4375 
Q 17.921875 44.484375 16.984375 42.84375 
Q 16.0625 41.21875 15.765625 38.71875 
L 6.59375 39.546875 
Q 7.078125 42.671875 8.4375 45.28125 
Q 9.8125 47.90625 12.328125 49.796875 
Q 14.84375 51.703125 18.625 52.75 
Q 22.40625 53.8125 27.78125 53.8125 
Q 37.75 53.8125 42.765625 49.234375 
Q 47.796875 44.671875 47.796875 36.03125 
L 47.796875 13.28125 
Q 47.796875 9.375 48.828125 7.390625 
Q 49.859375 5.421875 52.734375 5.421875 
Q 53.46875 5.421875 54.203125 5.515625 
Q 54.9375 5.609375 55.609375 5.765625 
L 55.609375 0.296875 
Q 53.953125 -0.09375 52.3125 -0.28125 
Q 50.6875 -0.484375 48.828125 -0.484375 
Q 46.34375 -0.484375 44.5625 0.171875 
Q 42.78125 0.828125 41.65625 2.171875 
Q 40.53125 3.515625 39.9375 5.484375 
Q 39.359375 7.46875 39.203125 10.109375 
L 38.921875 10.109375 
Q 37.5 7.5625 35.8125 5.515625 
Q 34.125 3.46875 31.875 2.03125 
Q 29.640625 0.59375 26.78125 -0.1875 
Q 23.921875 -0.984375 20.21875 -0.984375 
z
M 22.21875 5.609375 
Q 26.421875 5.609375 29.5625 7.140625 
Q 32.71875 8.6875 34.78125 11.078125 
Q 36.859375 13.484375 37.890625 16.3125 
Q 38.921875 19.140625 38.921875 21.734375 
L 38.921875 26.078125 
L 29.296875 25.875 
Q 26.078125 25.828125 23.171875 25.40625 
Q 20.265625 25 18.0625 23.78125 
Q 15.875 22.5625 14.578125 20.359375 
Q 13.28125 18.171875 13.28125 14.59375 
Q 13.28125 10.296875 15.59375 7.953125 
Q 17.921875 5.609375 22.21875 5.609375 
z
" id="LiberationSans-97"/>
      <path d="M 29.5 0 
Q 27.640625 -4.78125 25.703125 -8.609375 
Q 23.78125 -12.453125 21.390625 -15.15625 
Q 19 -17.875 16.0625 -19.3125 
Q 13.140625 -20.75 9.328125 -20.75 
Q 7.671875 -20.75 6.25 -20.65625 
Q 4.828125 -20.5625 3.265625 -20.21875 
L 3.265625 -13.625 
Q 4.203125 -13.765625 5.375 -13.84375 
Q 6.546875 -13.921875 7.375 -13.921875 
Q 11.234375 -13.921875 14.546875 -11.03125 
Q 17.875 -8.15625 20.359375 -1.859375 
L 21.1875 0.25 
L 0.25 52.828125 
L 9.625 52.828125 
L 20.75 23.640625 
Q 21.234375 22.3125 21.984375 20.109375 
Q 22.75 17.921875 23.5 15.71875 
Q 24.265625 13.53125 24.84375 11.765625 
Q 25.4375 10.015625 25.53125 9.578125 
Q 25.6875 10.109375 26.25 11.6875 
Q 26.8125 13.28125 27.515625 15.234375 
Q 28.21875 17.1875 28.953125 19.1875 
Q 29.6875 21.1875 30.171875 22.65625 
L 40.53125 52.828125 
L 49.8125 52.828125 
z
" id="LiberationSans-121"/>
      <path d="M 46.390625 14.59375 
Q 46.390625 10.890625 44.9375 7.984375 
Q 43.5 5.078125 40.765625 3.09375 
Q 38.03125 1.125 34.046875 0.0625 
Q 30.078125 -0.984375 24.953125 -0.984375 
Q 20.359375 -0.984375 16.671875 -0.265625 
Q 12.984375 0.4375 10.203125 2 
Q 7.421875 3.5625 5.53125 6.125 
Q 3.65625 8.6875 2.78125 12.40625 
L 10.546875 13.921875 
Q 11.671875 9.671875 15.1875 7.6875 
Q 18.703125 5.71875 24.953125 5.71875 
Q 27.78125 5.71875 30.140625 6.109375 
Q 32.515625 6.5 34.21875 7.453125 
Q 35.9375 8.40625 36.890625 9.984375 
Q 37.84375 11.578125 37.84375 13.921875 
Q 37.84375 16.3125 36.71875 17.84375 
Q 35.59375 19.390625 33.59375 20.40625 
Q 31.59375 21.4375 28.734375 22.1875 
Q 25.875 22.953125 22.46875 23.875 
Q 19.28125 24.703125 16.15625 25.734375 
Q 13.03125 26.765625 10.515625 28.4375 
Q 8.015625 30.125 6.453125 32.609375 
Q 4.890625 35.109375 4.890625 38.875 
Q 4.890625 46.09375 10.03125 49.875 
Q 15.1875 53.65625 25.046875 53.65625 
Q 33.796875 53.65625 38.9375 50.578125 
Q 44.09375 47.515625 45.453125 40.71875 
L 37.546875 39.75 
Q 37.109375 41.796875 35.9375 43.1875 
Q 34.765625 44.578125 33.109375 45.4375 
Q 31.453125 46.296875 29.375 46.65625 
Q 27.296875 47.015625 25.046875 47.015625 
Q 19.09375 47.015625 16.25 45.203125 
Q 13.421875 43.40625 13.421875 39.75 
Q 13.421875 37.59375 14.46875 36.203125 
Q 15.53125 34.8125 17.40625 33.859375 
Q 19.28125 32.90625 21.921875 32.203125 
Q 24.5625 31.5 27.734375 30.71875 
Q 29.828125 30.171875 32.03125 29.5625 
Q 34.234375 28.953125 36.296875 28.09375 
Q 38.375 27.25 40.203125 26.09375 
Q 42.046875 24.953125 43.40625 23.34375 
Q 44.78125 21.734375 45.578125 19.578125 
Q 46.390625 17.4375 46.390625 14.59375 
z
" id="LiberationSans-115"/>
      <path id="LiberationSans-32"/>
      <path d="M 17.625 46.4375 
L 17.625 0 
L 8.84375 0 
L 8.84375 46.4375 
L 1.421875 46.4375 
L 1.421875 52.828125 
L 8.84375 52.828125 
L 8.84375 58.796875 
Q 8.84375 61.671875 9.375 64.140625 
Q 9.90625 66.609375 11.34375 68.4375 
Q 12.796875 70.265625 15.28125 71.3125 
Q 17.78125 72.359375 21.734375 72.359375 
Q 23.296875 72.359375 24.96875 72.21875 
Q 26.65625 72.078125 27.9375 71.78125 
L 27.9375 65.09375 
Q 27.09375 65.234375 26 65.359375 
Q 24.90625 65.484375 24.03125 65.484375 
Q 22.078125 65.484375 20.828125 64.9375 
Q 19.578125 64.40625 18.875 63.40625 
Q 18.171875 62.40625 17.890625 60.9375 
Q 17.625 59.46875 17.625 57.5625 
L 17.625 52.828125 
L 27.9375 52.828125 
L 27.9375 46.4375 
z
" id="LiberationSans-102"/>
      <path d="M 6.9375 0 
L 6.9375 40.53125 
Q 6.9375 42.1875 6.90625 43.921875 
Q 6.890625 45.65625 6.828125 47.265625 
Q 6.78125 48.875 6.734375 50.28125 
Q 6.6875 51.703125 6.640625 52.828125 
L 14.9375 52.828125 
Q 14.984375 51.703125 15.0625 50.265625 
Q 15.140625 48.828125 15.203125 47.3125 
Q 15.28125 45.796875 15.296875 44.40625 
Q 15.328125 43.015625 15.328125 42.046875 
L 15.53125 42.046875 
Q 16.453125 45.0625 17.5 47.28125 
Q 18.5625 49.515625 19.96875 50.953125 
Q 21.390625 52.390625 23.34375 53.09375 
Q 25.296875 53.8125 28.078125 53.8125 
Q 29.15625 53.8125 30.125 53.640625 
Q 31.109375 53.46875 31.640625 53.328125 
L 31.640625 45.265625 
Q 30.765625 45.515625 29.59375 45.625 
Q 28.421875 45.75 26.953125 45.75 
Q 23.921875 45.75 21.796875 44.375 
Q 19.671875 43.015625 18.328125 40.59375 
Q 17 38.1875 16.359375 34.84375 
Q 15.71875 31.5 15.71875 27.546875 
L 15.71875 0 
z
" id="LiberationSans-114"/>
      <path d="M 51.421875 26.46875 
Q 51.421875 12.59375 45.3125 5.796875 
Q 39.203125 -0.984375 27.59375 -0.984375 
Q 22.078125 -0.984375 17.71875 0.671875 
Q 13.375 2.34375 10.375 5.765625 
Q 7.375 9.1875 5.78125 14.328125 
Q 4.203125 19.484375 4.203125 26.46875 
Q 4.203125 53.8125 27.875 53.8125 
Q 34.03125 53.8125 38.5 52.09375 
Q 42.96875 50.390625 45.828125 46.96875 
Q 48.6875 43.5625 50.046875 38.421875 
Q 51.421875 33.296875 51.421875 26.46875 
z
M 42.1875 26.46875 
Q 42.1875 32.625 41.234375 36.625 
Q 40.28125 40.625 38.453125 43.015625 
Q 36.625 45.40625 33.984375 46.359375 
Q 31.34375 47.3125 28.03125 47.3125 
Q 24.65625 47.3125 21.9375 46.3125 
Q 19.234375 45.3125 17.328125 42.890625 
Q 15.4375 40.484375 14.421875 36.46875 
Q 13.421875 32.46875 13.421875 26.46875 
Q 13.421875 20.3125 14.5 16.28125 
Q 15.578125 12.25 17.453125 9.859375 
Q 19.34375 7.46875 21.90625 6.484375 
Q 24.46875 5.515625 27.484375 5.515625 
Q 30.859375 5.515625 33.59375 6.46875 
Q 36.328125 7.421875 38.234375 9.8125 
Q 40.140625 12.203125 41.15625 16.25 
Q 42.1875 20.3125 42.1875 26.46875 
z
" id="LiberationSans-111"/>
      <path d="M 37.5 0 
L 37.5 33.5 
Q 37.5 37.359375 37.015625 39.9375 
Q 36.53125 42.53125 35.375 44.109375 
Q 34.234375 45.703125 32.375 46.359375 
Q 30.515625 47.015625 27.828125 47.015625 
Q 25.046875 47.015625 22.796875 45.921875 
Q 20.5625 44.828125 18.96875 42.75 
Q 17.390625 40.671875 16.53125 37.625 
Q 15.671875 34.578125 15.671875 30.609375 
L 15.671875 0 
L 6.9375 0 
L 6.9375 41.546875 
Q 6.9375 43.21875 6.90625 45.046875 
Q 6.890625 46.875 6.828125 48.5 
Q 6.78125 50.140625 6.734375 51.3125 
Q 6.6875 52.484375 6.640625 52.828125 
L 14.9375 52.828125 
Q 14.984375 52.59375 15.03125 51.515625 
Q 15.09375 50.4375 15.15625 49.046875 
Q 15.234375 47.65625 15.28125 46.21875 
Q 15.328125 44.78125 15.328125 43.796875 
L 15.484375 43.796875 
Q 16.65625 46.09375 18.015625 47.953125 
Q 19.390625 49.8125 21.21875 51.09375 
Q 23.046875 52.390625 25.40625 53.09375 
Q 27.78125 53.8125 30.90625 53.8125 
Q 36.921875 53.8125 40.40625 51.421875 
Q 43.890625 49.03125 45.265625 43.796875 
L 45.40625 43.796875 
Q 46.578125 46.09375 48.046875 47.953125 
Q 49.515625 49.8125 51.46875 51.09375 
Q 53.421875 52.390625 55.859375 53.09375 
Q 58.296875 53.8125 61.421875 53.8125 
Q 65.4375 53.8125 68.328125 52.734375 
Q 71.234375 51.65625 73.09375 49.40625 
Q 74.953125 47.171875 75.828125 43.625 
Q 76.703125 40.09375 76.703125 35.203125 
L 76.703125 0 
L 68.015625 0 
L 68.015625 33.5 
Q 68.015625 37.359375 67.53125 39.9375 
Q 67.046875 42.53125 65.890625 44.109375 
Q 64.75 45.703125 62.890625 46.359375 
Q 61.03125 47.015625 58.34375 47.015625 
Q 55.5625 47.015625 53.3125 45.96875 
Q 51.078125 44.921875 49.484375 42.875 
Q 47.90625 40.828125 47.046875 37.75 
Q 46.1875 34.671875 46.1875 30.609375 
L 46.1875 0 
z
" id="LiberationSans-109"/>
      <path d="M 6.6875 64.0625 
L 6.6875 72.46875 
L 15.484375 72.46875 
L 15.484375 64.0625 
z
M 6.6875 0 
L 6.6875 52.828125 
L 15.484375 52.828125 
L 15.484375 0 
z
" id="LiberationSans-105"/>
      <path d="M 27.046875 0.390625 
Q 25.046875 -0.140625 22.96875 -0.453125 
Q 20.90625 -0.78125 18.171875 -0.78125 
Q 7.625 -0.78125 7.625 11.1875 
L 7.625 46.4375 
L 1.515625 46.4375 
L 1.515625 52.828125 
L 7.953125 52.828125 
L 10.546875 64.65625 
L 16.40625 64.65625 
L 16.40625 52.828125 
L 26.171875 52.828125 
L 26.171875 46.4375 
L 16.40625 46.4375 
L 16.40625 13.09375 
Q 16.40625 9.28125 17.640625 7.734375 
Q 18.890625 6.203125 21.96875 6.203125 
Q 23.25 6.203125 24.4375 6.390625 
Q 25.640625 6.59375 27.046875 6.890625 
z
" id="LiberationSans-116"/>
      <path d="M 13.421875 26.65625 
Q 13.421875 22.125 14.078125 18.3125 
Q 14.75 14.5 16.3125 11.734375 
Q 17.875 8.984375 20.4375 7.46875 
Q 23 5.953125 26.765625 5.953125 
Q 31.453125 5.953125 34.59375 8.484375 
Q 37.75 11.03125 38.484375 16.3125 
L 47.359375 15.71875 
Q 46.921875 12.453125 45.453125 9.421875 
Q 44 6.390625 41.484375 4.09375 
Q 38.96875 1.8125 35.34375 0.40625 
Q 31.734375 -0.984375 27 -0.984375 
Q 20.796875 -0.984375 16.453125 1.109375 
Q 12.109375 3.21875 9.390625 6.90625 
Q 6.6875 10.59375 5.46875 15.59375 
Q 4.25 20.609375 4.25 26.46875 
Q 4.25 31.78125 5.125 35.859375 
Q 6 39.9375 7.59375 42.984375 
Q 9.1875 46.046875 11.328125 48.125 
Q 13.484375 50.203125 15.984375 51.4375 
Q 18.5 52.6875 21.28125 53.25 
Q 24.078125 53.8125 26.90625 53.8125 
Q 31.34375 53.8125 34.8125 52.59375 
Q 38.28125 51.375 40.796875 49.25 
Q 43.3125 47.125 44.875 44.234375 
Q 46.4375 41.359375 47.078125 38.03125 
L 38.03125 37.359375 
Q 37.359375 41.75 34.5625 44.328125 
Q 31.78125 46.921875 26.65625 46.921875 
Q 22.90625 46.921875 20.390625 45.671875 
Q 17.875 44.4375 16.3125 41.921875 
Q 14.75 39.40625 14.078125 35.59375 
Q 13.421875 31.78125 13.421875 26.65625 
z
" id="LiberationSans-99"/>
      <path d="M 40.28125 0 
L 40.28125 33.5 
Q 40.28125 37.359375 39.71875 39.9375 
Q 39.15625 42.53125 37.890625 44.109375 
Q 36.625 45.703125 34.546875 46.359375 
Q 32.46875 47.015625 29.390625 47.015625 
Q 26.265625 47.015625 23.75 45.921875 
Q 21.234375 44.828125 19.453125 42.75 
Q 17.671875 40.671875 16.6875 37.625 
Q 15.71875 34.578125 15.71875 30.609375 
L 15.71875 0 
L 6.9375 0 
L 6.9375 41.546875 
Q 6.9375 43.21875 6.90625 45.046875 
Q 6.890625 46.875 6.828125 48.5 
Q 6.78125 50.140625 6.734375 51.3125 
Q 6.6875 52.484375 6.640625 52.828125 
L 14.9375 52.828125 
Q 14.984375 52.59375 15.03125 51.515625 
Q 15.09375 50.4375 15.15625 49.046875 
Q 15.234375 47.65625 15.28125 46.21875 
Q 15.328125 44.78125 15.328125 43.796875 
L 15.484375 43.796875 
Q 16.75 46.09375 18.265625 47.953125 
Q 19.78125 49.8125 21.78125 51.09375 
Q 23.78125 52.390625 26.359375 53.09375 
Q 28.953125 53.8125 32.375 53.8125 
Q 36.765625 53.8125 39.9375 52.734375 
Q 43.109375 51.65625 45.15625 49.40625 
Q 47.21875 47.171875 48.171875 43.625 
Q 49.125 40.09375 49.125 35.203125 
L 49.125 0 
z
" id="LiberationSans-110"/>
      <path d="M 13.484375 24.5625 
Q 13.484375 20.40625 14.328125 16.90625 
Q 15.1875 13.421875 16.96875 10.90625 
Q 18.75 8.40625 21.53125 7 
Q 24.3125 5.609375 28.21875 5.609375 
Q 33.9375 5.609375 37.375 7.90625 
Q 40.828125 10.203125 42.046875 13.71875 
L 49.75 11.53125 
Q 48.921875 9.328125 47.4375 7.109375 
Q 45.953125 4.890625 43.453125 3.09375 
Q 40.96875 1.3125 37.234375 0.15625 
Q 33.5 -0.984375 28.21875 -0.984375 
Q 16.5 -0.984375 10.375 6 
Q 4.25 12.984375 4.25 26.765625 
Q 4.25 34.1875 6.09375 39.328125 
Q 7.953125 44.484375 11.171875 47.703125 
Q 14.40625 50.921875 18.703125 52.359375 
Q 23 53.8125 27.875 53.8125 
Q 34.515625 53.8125 38.984375 51.65625 
Q 43.453125 49.515625 46.15625 45.71875 
Q 48.875 41.9375 50.015625 36.8125 
Q 51.171875 31.6875 51.171875 25.734375 
L 51.171875 24.5625 
z
M 42.09375 31.296875 
Q 41.359375 39.65625 37.84375 43.484375 
Q 34.328125 47.3125 27.734375 47.3125 
Q 25.53125 47.3125 23.109375 46.609375 
Q 20.703125 45.90625 18.65625 44.09375 
Q 16.609375 42.28125 15.1875 39.171875 
Q 13.765625 36.078125 13.578125 31.296875 
z
" id="LiberationSans-101"/>
      <path d="M 40.09375 8.5 
Q 37.640625 3.421875 33.609375 1.21875 
Q 29.59375 -0.984375 23.640625 -0.984375 
Q 13.625 -0.984375 8.90625 5.75 
Q 4.203125 12.5 4.203125 26.171875 
Q 4.203125 53.8125 23.640625 53.8125 
Q 29.640625 53.8125 33.640625 51.609375 
Q 37.640625 49.421875 40.09375 44.625 
L 40.1875 44.625 
Q 40.1875 45.125 40.15625 46.171875 
Q 40.140625 47.21875 40.109375 48.359375 
Q 40.09375 49.515625 40.09375 50.53125 
Q 40.09375 51.5625 40.09375 52 
L 40.09375 72.46875 
L 48.875 72.46875 
L 48.875 10.890625 
Q 48.875 8.984375 48.890625 7.21875 
Q 48.921875 5.46875 48.96875 4 
Q 49.03125 2.546875 49.078125 1.484375 
Q 49.125 0.4375 49.171875 0 
L 40.765625 0 
Q 40.671875 0.484375 40.59375 1.390625 
Q 40.53125 2.296875 40.453125 3.46875 
Q 40.375 4.640625 40.328125 5.9375 
Q 40.28125 7.234375 40.28125 8.5 
z
M 13.421875 26.46875 
Q 13.421875 21 14.109375 17.09375 
Q 14.796875 13.1875 16.3125 10.671875 
Q 17.828125 8.15625 20.171875 6.984375 
Q 22.515625 5.8125 25.875 5.8125 
Q 29.34375 5.8125 32 6.9375 
Q 34.671875 8.0625 36.453125 10.578125 
Q 38.234375 13.09375 39.15625 17.140625 
Q 40.09375 21.1875 40.09375 27.046875 
Q 40.09375 32.671875 39.15625 36.546875 
Q 38.234375 40.4375 36.421875 42.828125 
Q 34.625 45.21875 32 46.265625 
Q 29.390625 47.3125 25.984375 47.3125 
Q 22.75 47.3125 20.40625 46.1875 
Q 18.0625 45.0625 16.5 42.578125 
Q 14.9375 40.09375 14.171875 36.109375 
Q 13.421875 32.125 13.421875 26.46875 
z
" id="LiberationSans-100"/>
     </defs>
     <g style="fill:#262626;" transform="translate(282.79875 605.769844)scale(0.18 -0.18)">
      <use xlink:href="#LiberationSans-68"/>
      <use x="72.216797" xlink:href="#LiberationSans-97"/>
      <use x="127.832031" xlink:href="#LiberationSans-121"/>
      <use x="177.832031" xlink:href="#LiberationSans-115"/>
      <use x="227.832031" xlink:href="#LiberationSans-32"/>
      <use x="255.615234" xlink:href="#LiberationSans-102"/>
      <use x="283.398438" xlink:href="#LiberationSans-114"/>
      <use x="316.699219" xlink:href="#LiberationSans-111"/>
      <use x="372.314453" xlink:href="#LiberationSans-109"/>
      <use x="455.615234" xlink:href="#LiberationSans-32"/>
      <use x="483.398438" xlink:href="#LiberationSans-102"/>
      <use x="511.181641" xlink:href="#LiberationSans-105"/>
      <use x="533.398438" xlink:href="#LiberationSans-114"/>
      <use x="566.699219" xlink:href="#LiberationSans-115"/>
      <use x="616.699219" xlink:href="#LiberationSans-116"/>
      <use x="644.482422" xlink:href="#LiberationSans-32"/>
      <use x="672.265625" xlink:href="#LiberationSans-53"/>
      <use x="727.880859" xlink:href="#LiberationSans-48"/>
      <use x="783.496094" xlink:href="#LiberationSans-32"/>
      <use x="811.279297" xlink:href="#LiberationSans-99"/>
      <use x="861.279297" xlink:href="#LiberationSans-111"/>
      <use x="916.894531" xlink:href="#LiberationSans-110"/>
      <use x="972.509766" xlink:href="#LiberationSans-102"/>
      <use x="1000.292969" xlink:href="#LiberationSans-105"/>
      <use x="1022.509766" xlink:href="#LiberationSans-114"/>
      <use x="1055.810547" xlink:href="#LiberationSans-109"/>
      <use x="1139.111328" xlink:href="#LiberationSans-101"/>
      <use x="1194.726562" xlink:href="#LiberationSans-100"/>
      <use x="1250.341797" xlink:href="#LiberationSans-32"/>
      <use x="1278.125" xlink:href="#LiberationSans-99"/>
      <use x="1328.125" xlink:href="#LiberationSans-97"/>
      <use x="1383.740234" xlink:href="#LiberationSans-115"/>
      <use x="1433.740234" xlink:href="#LiberationSans-101"/>
      <use x="1489.355469" xlink:href="#LiberationSans-115"/>
     </g>
    </g>
   </g>
   <g id="matplotlib.axis_2">
    <g id="ytick_1">
     <g id="line2d_19">
      <path clip-path="url(#pde8ce3dced)" d="M 86.532656 545.269258 
L 756.132656 545.269258 
" style="fill:none;stroke:#cccccc;stroke-linecap:round;stroke-width:1.5;"/>
     </g>
     <g id="line2d_20"/>
     <g id="text_11">
      <!-- 0 -->
      <g style="fill:#262626;" transform="translate(73.857109 551.24793)scale(0.165 -0.165)">
       <use xlink:href="#LiberationSans-48"/>
      </g>
     </g>
    </g>
    <g id="ytick_2">
     <g id="line2d_21">
      <path clip-path="url(#pde8ce3dced)" d="M 86.532656 479.595859 
L 756.132656 479.595859 
" style="fill:none;stroke:#cccccc;stroke-linecap:round;stroke-width:1.5;"/>
     </g>
     <g id="line2d_22"/>
     <g id="text_12">
      <!-- 25000 -->
      <g style="fill:#262626;" transform="translate(37.154922 485.574531)scale(0.165 -0.165)">
       <use xlink:href="#LiberationSans-50"/>
       <use x="55.615234" xlink:href="#LiberationSans-53"/>
       <use x="111.230469" xlink:href="#LiberationSans-48"/>
       <use x="166.845703" xlink:href="#LiberationSans-48"/>
       <use x="222.460938" xlink:href="#LiberationSans-48"/>
      </g>
     </g>
    </g>
    <g id="ytick_3">
     <g id="line2d_23">
      <path clip-path="url(#pde8ce3dced)" d="M 86.532656 413.92246 
L 756.132656 413.92246 
" style="fill:none;stroke:#cccccc;stroke-linecap:round;stroke-width:1.5;"/>
     </g>
     <g id="line2d_24"/>
     <g id="text_13">
      <!-- 50000 -->
      <g style="fill:#262626;" transform="translate(37.154922 419.901132)scale(0.165 -0.165)">
       <use xlink:href="#LiberationSans-53"/>
       <use x="55.615234" xlink:href="#LiberationSans-48"/>
       <use x="111.230469" xlink:href="#LiberationSans-48"/>
       <use x="166.845703" xlink:href="#LiberationSans-48"/>
       <use x="222.460938" xlink:href="#LiberationSans-48"/>
      </g>
     </g>
    </g>
    <g id="ytick_4">
     <g id="line2d_25">
      <path clip-path="url(#pde8ce3dced)" d="M 86.532656 348.249061 
L 756.132656 348.249061 
" style="fill:none;stroke:#cccccc;stroke-linecap:round;stroke-width:1.5;"/>
     </g>
     <g id="line2d_26"/>
     <g id="text_14">
      <!-- 75000 -->
      <defs>
       <path d="M 50.59375 61.671875 
Q 45.40625 53.765625 41.0625 46.453125 
Q 36.71875 39.15625 33.59375 31.75 
Q 30.46875 24.359375 28.734375 16.578125 
Q 27 8.796875 27 0 
L 17.828125 0 
Q 17.828125 8.25 19.78125 16.1875 
Q 21.734375 24.125 25.046875 31.765625 
Q 28.375 39.40625 32.765625 46.78125 
Q 37.15625 54.15625 42.09375 61.328125 
L 5.125 61.328125 
L 5.125 68.796875 
L 50.59375 68.796875 
z
" id="LiberationSans-55"/>
      </defs>
      <g style="fill:#262626;" transform="translate(37.154922 354.227733)scale(0.165 -0.165)">
       <use xlink:href="#LiberationSans-55"/>
       <use x="55.615234" xlink:href="#LiberationSans-53"/>
       <use x="111.230469" xlink:href="#LiberationSans-48"/>
       <use x="166.845703" xlink:href="#LiberationSans-48"/>
       <use x="222.460938" xlink:href="#LiberationSans-48"/>
      </g>
     </g>
    </g>
    <g id="ytick_5">
     <g id="line2d_27">
      <path clip-path="url(#pde8ce3dced)" d="M 86.532656 282.575663 
L 756.132656 282.575663 
" style="fill:none;stroke:#cccccc;stroke-linecap:round;stroke-width:1.5;"/>
     </g>
     <g id="line2d_28"/>
     <g id="text_15">
      <!-- 100000 -->
      <g style="fill:#262626;" transform="translate(27.979375 288.554335)scale(0.165 -0.165)">
       <use xlink:href="#LiberationSans-49"/>
       <use x="55.615234" xlink:href="#LiberationSans-48"/>
       <use x="111.230469" xlink:href="#LiberationSans-48"/>
       <use x="166.845703" xlink:href="#LiberationSans-48"/>
       <use x="222.460938" xlink:href="#LiberationSans-48"/>
       <use x="278.076172" xlink:href="#LiberationSans-48"/>
      </g>
     </g>
    </g>
    <g id="ytick_6">
     <g id="line2d_29">
      <path clip-path="url(#pde8ce3dced)" d="M 86.532656 216.902264 
L 756.132656 216.902264 
" style="fill:none;stroke:#cccccc;stroke-linecap:round;stroke-width:1.5;"/>
     </g>
     <g id="line2d_30"/>
     <g id="text_16">
      <!-- 125000 -->
      <g style="fill:#262626;" transform="translate(27.979375 222.880936)scale(0.165 -0.165)">
       <use xlink:href="#LiberationSans-49"/>
       <use x="55.615234" xlink:href="#LiberationSans-50"/>
       <use x="111.230469" xlink:href="#LiberationSans-53"/>
       <use x="166.845703" xlink:href="#LiberationSans-48"/>
       <use x="222.460938" xlink:href="#LiberationSans-48"/>
       <use x="278.076172" xlink:href="#LiberationSans-48"/>
      </g>
     </g>
    </g>
    <g id="ytick_7">
     <g id="line2d_31">
      <path clip-path="url(#pde8ce3dced)" d="M 86.532656 151.228865 
L 756.132656 151.228865 
" style="fill:none;stroke:#cccccc;stroke-linecap:round;stroke-width:1.5;"/>
     </g>
     <g id="line2d_32"/>
     <g id="text_17">
      <!-- 150000 -->
      <g style="fill:#262626;" transform="translate(27.979375 157.207537)scale(0.165 -0.165)">
       <use xlink:href="#LiberationSans-49"/>
       <use x="55.615234" xlink:href="#LiberationSans-53"/>
       <use x="111.230469" xlink:href="#LiberationSans-48"/>
       <use x="166.845703" xlink:href="#LiberationSans-48"/>
       <use x="222.460938" xlink:href="#LiberationSans-48"/>
       <use x="278.076172" xlink:href="#LiberationSans-48"/>
      </g>
     </g>
    </g>
    <g id="ytick_8">
     <g id="line2d_33">
      <path clip-path="url(#pde8ce3dced)" d="M 86.532656 85.555466 
L 756.132656 85.555466 
" style="fill:none;stroke:#cccccc;stroke-linecap:round;stroke-width:1.5;"/>
     </g>
     <g id="line2d_34"/>
     <g id="text_18">
      <!-- 175000 -->
      <g style="fill:#262626;" transform="translate(27.979375 91.534138)scale(0.165 -0.165)">
       <use xlink:href="#LiberationSans-49"/>
       <use x="55.615234" xlink:href="#LiberationSans-55"/>
       <use x="111.230469" xlink:href="#LiberationSans-53"/>
       <use x="166.845703" xlink:href="#LiberationSans-48"/>
       <use x="222.460938" xlink:href="#LiberationSans-48"/>
       <use x="278.076172" xlink:href="#LiberationSans-48"/>
      </g>
     </g>
    </g>
    <g id="text_19">
     <!-- Confirmed cases (linear scale) -->
     <defs>
      <path d="M 38.671875 62.203125 
Q 32.8125 62.203125 28.296875 60.25 
Q 23.78125 58.296875 20.71875 54.6875 
Q 17.671875 51.078125 16.109375 46 
Q 14.546875 40.921875 14.546875 34.71875 
Q 14.546875 28.515625 16.234375 23.359375 
Q 17.921875 18.21875 21.0625 14.5 
Q 24.21875 10.796875 28.78125 8.734375 
Q 33.34375 6.6875 39.0625 6.6875 
Q 43.0625 6.6875 46.359375 7.734375 
Q 49.65625 8.796875 52.3125 10.6875 
Q 54.984375 12.59375 57.078125 15.203125 
Q 59.1875 17.828125 60.796875 21 
L 68.40625 17.1875 
Q 66.546875 13.328125 63.8125 10 
Q 61.078125 6.6875 57.390625 4.25 
Q 53.71875 1.8125 49.046875 0.40625 
Q 44.390625 -0.984375 38.625 -0.984375 
Q 30.28125 -0.984375 24 1.671875 
Q 17.71875 4.34375 13.5 9.109375 
Q 9.28125 13.875 7.171875 20.40625 
Q 5.078125 26.953125 5.078125 34.71875 
Q 5.078125 42.78125 7.296875 49.265625 
Q 9.515625 55.765625 13.78125 60.328125 
Q 18.0625 64.890625 24.3125 67.359375 
Q 30.5625 69.828125 38.578125 69.828125 
Q 49.5625 69.828125 56.9375 65.53125 
Q 64.3125 61.234375 67.78125 52.78125 
L 58.9375 49.859375 
Q 57.953125 52.296875 56.296875 54.515625 
Q 54.640625 56.734375 52.140625 58.4375 
Q 49.65625 60.15625 46.3125 61.171875 
Q 42.96875 62.203125 38.671875 62.203125 
z
" id="LiberationSans-67"/>
      <path d="M 6.203125 25.984375 
Q 6.203125 32.765625 7.21875 38.96875 
Q 8.25 45.171875 10.4375 50.875 
Q 12.640625 56.59375 16.0625 61.953125 
Q 19.484375 67.328125 24.21875 72.46875 
L 32.71875 72.46875 
Q 28.125 67.328125 24.78125 61.9375 
Q 21.4375 56.546875 19.28125 50.796875 
Q 17.140625 45.0625 16.09375 38.859375 
Q 15.046875 32.671875 15.046875 25.875 
Q 15.046875 19.09375 16.09375 12.890625 
Q 17.140625 6.6875 19.28125 0.921875 
Q 21.4375 -4.828125 24.78125 -10.203125 
Q 28.125 -15.578125 32.71875 -20.703125 
L 24.21875 -20.703125 
Q 19.484375 -15.578125 16.0625 -10.203125 
Q 12.640625 -4.828125 10.4375 0.875 
Q 8.25 6.59375 7.21875 12.765625 
Q 6.203125 18.953125 6.203125 25.78125 
z
" id="LiberationSans-40"/>
      <path d="M 6.734375 0 
L 6.734375 72.46875 
L 15.53125 72.46875 
L 15.53125 0 
z
" id="LiberationSans-108"/>
      <path d="M 27.09375 25.78125 
Q 27.09375 18.953125 26.0625 12.765625 
Q 25.046875 6.59375 22.84375 0.875 
Q 20.65625 -4.828125 17.234375 -10.203125 
Q 13.8125 -15.578125 9.078125 -20.703125 
L 0.59375 -20.703125 
Q 5.171875 -15.578125 8.515625 -10.203125 
Q 11.859375 -4.828125 14 0.921875 
Q 16.15625 6.6875 17.203125 12.890625 
Q 18.265625 19.09375 18.265625 25.875 
Q 18.265625 32.671875 17.203125 38.859375 
Q 16.15625 45.0625 14 50.796875 
Q 11.859375 56.546875 8.515625 61.9375 
Q 5.171875 67.328125 0.59375 72.46875 
L 9.078125 72.46875 
Q 13.8125 67.328125 17.234375 61.953125 
Q 20.65625 56.59375 22.84375 50.875 
Q 25.046875 45.171875 26.0625 38.96875 
Q 27.09375 32.765625 27.09375 25.984375 
z
" id="LiberationSans-41"/>
     </defs>
     <g style="fill:#262626;" transform="translate(20.244375 419.580937)rotate(-90)scale(0.18 -0.18)">
      <use xlink:href="#LiberationSans-67"/>
      <use x="72.216797" xlink:href="#LiberationSans-111"/>
      <use x="127.832031" xlink:href="#LiberationSans-110"/>
      <use x="183.447266" xlink:href="#LiberationSans-102"/>
      <use x="211.230469" xlink:href="#LiberationSans-105"/>
      <use x="233.447266" xlink:href="#LiberationSans-114"/>
      <use x="266.748047" xlink:href="#LiberationSans-109"/>
      <use x="350.048828" xlink:href="#LiberationSans-101"/>
      <use x="405.664062" xlink:href="#LiberationSans-100"/>
      <use x="461.279297" xlink:href="#LiberationSans-32"/>
      <use x="489.0625" xlink:href="#LiberationSans-99"/>
      <use x="539.0625" xlink:href="#LiberationSans-97"/>
      <use x="594.677734" xlink:href="#LiberationSans-115"/>
      <use x="644.677734" xlink:href="#LiberationSans-101"/>
      <use x="700.292969" xlink:href="#LiberationSans-115"/>
      <use x="750.292969" xlink:href="#LiberationSans-32"/>
      <use x="778.076172" xlink:href="#LiberationSans-40"/>
      <use x="811.376953" xlink:href="#LiberationSans-108"/>
      <use x="833.59375" xlink:href="#LiberationSans-105"/>
      <use x="855.810547" xlink:href="#LiberationSans-110"/>
      <use x="911.425781" xlink:href="#LiberationSans-101"/>
      <use x="967.041016" xlink:href="#LiberationSans-97"/>
      <use x="1022.65625" xlink:href="#LiberationSans-114"/>
      <use x="1055.957031" xlink:href="#LiberationSans-32"/>
      <use x="1083.740234" xlink:href="#LiberationSans-115"/>
      <use x="1133.740234" xlink:href="#LiberationSans-99"/>
      <use x="1183.740234" xlink:href="#LiberationSans-97"/>
      <use x="1239.355469" xlink:href="#LiberationSans-108"/>
      <use x="1261.572266" xlink:href="#LiberationSans-101"/>
      <use x="1317.1875" xlink:href="#LiberationSans-41"/>
     </g>
    </g>
   </g>
   <g id="line2d_35">
    <path clip-path="url(#pde8ce3dced)" d="M 116.96902 545.135284 
L 132.187202 545.135284 
L 147.405384 545.119522 
L 162.623565 545.116896 
L 177.841747 545.111642 
L 193.059929 545.090626 
L 208.278111 545.074865 
L 223.496293 545.011818 
L 238.714474 544.959279 
L 253.932656 544.877844 
L 269.150838 544.699213 
L 284.36902 544.581001 
L 299.587202 544.21323 
L 314.805384 543.908505 
L 330.023565 543.737754 
L 345.241747 542.750026 
L 360.459929 541.904153 
L 375.678111 540.900663 
L 390.896293 539.545164 
L 406.114474 538.105603 
L 421.332656 536.077609 
L 436.550838 533.10129 
L 451.76902 528.401702 
L 466.987202 524.823815 
L 482.205384 509.340655 
L 497.423565 495.094781 
L 512.641747 478.311287 
L 527.859929 457.855337 
L 543.078111 430.085997 
L 558.296293 404.09772 
L 573.514474 372.474665 
L 588.732656 325.037455 
L 603.950838 278.22283 
L 619.16902 226.154332 
L 634.387202 175.170759 
L 649.605384 120.212632 
L 664.823565 50.953466 
" style="fill:none;stroke:#1f77b4;stroke-linecap:round;stroke-width:2.25;"/>
   </g>
   <g id="line2d_36">
    <path clip-path="url(#pde8ce3dced)" d="M 116.96902 545.135284 
L 132.187202 545.043341 
L 147.405384 544.964533 
L 162.623565 544.83844 
L 177.841747 544.725482 
L 193.059929 544.549477 
L 208.278111 544.423384 
L 223.496293 544.260514 
L 238.714474 544.063494 
L 253.932656 544.063494 
L 269.150838 543.162455 
L 284.36902 542.264043 
L 299.587202 542.261416 
L 314.805384 541.19488 
L 330.023565 540.120463 
L 345.241747 538.328893 
L 360.459929 538.1345 
L 375.678111 534.724737 
L 390.896293 531.958573 
L 406.114474 530.177511 
L 421.332656 527.600487 
L 436.550838 523.822953 
L 451.76902 519.945595 
L 466.987202 514.23989 
L 482.205384 506.535087 
L 497.423565 499.791743 
L 512.641747 493.308465 
L 527.859929 486.286665 
L 543.078111 478.332303 
" style="fill:none;stroke:#ff7f0e;stroke-linecap:round;stroke-width:2.25;"/>
   </g>
   <g id="line2d_37">
    <path clip-path="url(#pde8ce3dced)" d="M 116.96902 545.106388 
L 132.187202 544.862083 
L 147.405384 544.667689 
L 162.623565 544.423384 
L 177.841747 544.079256 
L 193.059929 543.548615 
L 208.278111 542.936539 
L 223.496293 542.306074 
L 238.714474 540.819228 
L 253.932656 539.920816 
L 269.150838 538.696664 
L 284.36902 537.154653 
L 299.587202 535.134539 
L 314.805384 533.090783 
L 330.023565 529.814994 
L 345.241747 525.895605 
L 360.459929 521.175001 
L 375.678111 518.608485 
L 390.896293 512.532382 
L 406.114474 512.532382 
L 421.332656 498.877569 
L 436.550838 489.691174 
L 451.76902 480.260474 
L 466.987202 471.76759 
L 482.205384 462.505014 
L 497.423565 451.453494 
L 512.641747 437.472941 
L 527.859929 421.748102 
L 543.078111 404.523283 
L 558.296293 389.91752 
L 573.514474 377.337123 
L 588.732656 363.548336 
L 603.950838 349.862 
L 619.16902 333.567116 
L 634.387202 318.044552 
L 649.605384 302.351236 
L 664.823565 288.646512 
L 680.041747 278.007421 
L 695.259929 267.36045 
" style="fill:none;stroke:#2ca02c;stroke-linecap:round;stroke-width:2.25;"/>
   </g>
   <g id="line2d_38">
    <path clip-path="url(#pde8ce3dced)" d="M 116.96902 545.048595 
L 132.187202 544.954026 
L 147.405384 544.835813 
L 162.623565 544.686078 
L 177.841747 544.588881 
L 193.059929 544.218483 
L 208.278111 543.95579 
L 223.496293 543.50133 
L 238.714474 542.450556 
L 253.932656 540.816601 
L 269.150838 539.287725 
L 284.36902 539.287725 
L 299.587202 531.525129 
L 314.805384 528.48051 
L 330.023565 524.784411 
L 345.241747 519.152261 
L 360.459929 514.408014 
L 375.678111 508.728579 
L 390.896293 498.081607 
L 406.114474 491.653495 
L 421.332656 478.613385 
L 436.550838 469.697564 
L 451.76902 452.969236 
L 466.987202 440.493917 
L 482.205384 415.196524 
L 497.423565 393.469137 
L 512.641747 372.629654 
L 527.859929 352.885603 
L 543.078111 334.825419 
L 558.296293 314.214479 
L 573.514474 293.285681 
" style="fill:none;stroke:#d62728;stroke-linecap:round;stroke-width:2.25;"/>
   </g>
   <g id="line2d_39">
    <path clip-path="url(#pde8ce3dced)" d="M 116.96902 544.996056 
L 132.187202 544.733363 
L 147.405384 544.131795 
L 162.623565 543.687842 
L 177.841747 543.08102 
L 193.059929 542.702741 
L 208.278111 541.956692 
L 223.496293 540.630089 
L 238.714474 539.130109 
L 253.932656 536.99441 
L 269.150838 535.455025 
L 284.36902 533.88149 
L 299.587202 531.645968 
L 314.805384 530.503251 
L 330.023565 529.276472 
L 345.241747 527.949869 
L 360.459929 526.773002 
L 375.678111 526.055848 
L 390.896293 525.625031 
L 406.114474 525.533088 
L 421.332656 524.89737 
L 436.550838 524.597899 
L 451.76902 524.308936 
L 466.987202 524.027854 
L 482.205384 523.828207 
L 497.423565 523.633813 
L 512.641747 523.413151 
L 527.859929 523.168846 
L 543.078111 522.769551 
L 558.296293 522.541008 
L 573.514474 522.154848 
L 588.732656 521.729285 
L 603.950838 521.729285 
L 619.16902 521.529638 
L 634.387202 521.266944 
L 649.605384 520.993743 
L 664.823565 520.754692 
L 680.041747 520.371159 
L 695.259929 520.095331 
L 710.478111 519.89043 
L 725.696293 519.562063 
" style="fill:none;stroke:#9467bd;stroke-linecap:round;stroke-width:2.25;"/>
   </g>
   <g id="patch_3">
    <path d="M 86.532656 569.844375 
L 86.532656 26.244375 
" style="fill:none;stroke:#cccccc;stroke-linecap:square;stroke-linejoin:miter;"/>
   </g>
   <g id="patch_4">
    <path d="M 756.132656 569.844375 
L 756.132656 26.244375 
" style="fill:none;stroke:#cccccc;stroke-linecap:square;stroke-linejoin:miter;"/>
   </g>
   <g id="patch_5">
    <path d="M 86.532656 569.844375 
L 756.132656 569.844375 
" style="fill:none;stroke:#cccccc;stroke-linecap:square;stroke-linejoin:miter;"/>
   </g>
   <g id="patch_6">
    <path d="M 86.532656 26.244375 
L 756.132656 26.244375 
" style="fill:none;stroke:#cccccc;stroke-linecap:square;stroke-linejoin:miter;"/>
   </g>
   <g id="text_20">
    <!-- Growth of COVID-19 -->
    <defs>
     <path d="M 5.03125 34.71875 
Q 5.03125 42.78125 7.203125 49.265625 
Q 9.375 55.765625 13.6875 60.328125 
Q 18.015625 64.890625 24.40625 67.359375 
Q 30.8125 69.828125 39.265625 69.828125 
Q 45.609375 69.828125 50.390625 68.703125 
Q 55.171875 67.578125 58.6875 65.46875 
Q 62.203125 63.375 64.640625 60.375 
Q 67.09375 57.375 68.796875 53.609375 
L 59.90625 50.984375 
Q 58.640625 53.515625 56.859375 55.59375 
Q 55.078125 57.671875 52.53125 59.125 
Q 50 60.59375 46.65625 61.390625 
Q 43.3125 62.203125 39.015625 62.203125 
Q 32.765625 62.203125 28.140625 60.25 
Q 23.53125 58.296875 20.5 54.6875 
Q 17.484375 51.078125 15.984375 46 
Q 14.5 40.921875 14.5 34.71875 
Q 14.5 28.515625 16.109375 23.359375 
Q 17.71875 18.21875 20.890625 14.484375 
Q 24.078125 10.75 28.78125 8.671875 
Q 33.5 6.59375 39.703125 6.59375 
Q 43.75 6.59375 47.171875 7.265625 
Q 50.59375 7.953125 53.34375 9.046875 
Q 56.109375 10.15625 58.203125 11.5 
Q 60.296875 12.84375 61.71875 14.203125 
L 61.71875 26.609375 
L 41.15625 26.609375 
L 41.15625 34.421875 
L 70.3125 34.421875 
L 70.3125 10.6875 
Q 68.015625 8.34375 64.90625 6.21875 
Q 61.8125 4.109375 57.953125 2.484375 
Q 54.109375 0.875 49.515625 -0.046875 
Q 44.921875 -0.984375 39.703125 -0.984375 
Q 31 -0.984375 24.5 1.671875 
Q 18.015625 4.34375 13.6875 9.109375 
Q 9.375 13.875 7.203125 20.40625 
Q 5.03125 26.953125 5.03125 34.71875 
z
" id="LiberationSans-71"/>
     <path d="M 57.328125 0 
L 47.125 0 
L 38.671875 34.078125 
Q 38.28125 35.40625 37.859375 37.359375 
Q 37.453125 39.3125 37.0625 41.15625 
Q 36.578125 43.3125 36.140625 45.609375 
Q 35.6875 43.40625 35.203125 41.265625 
Q 34.8125 39.40625 34.34375 37.40625 
Q 33.890625 35.40625 33.5 33.890625 
L 24.8125 0 
L 14.65625 0 
L -0.140625 52.828125 
L 8.546875 52.828125 
L 17.484375 16.9375 
Q 17.828125 15.828125 18.15625 14.1875 
Q 18.5 12.546875 18.84375 10.984375 
Q 19.1875 9.1875 19.578125 7.28125 
Q 19.96875 9.125 20.40625 10.890625 
Q 20.796875 12.40625 21.1875 13.96875 
Q 21.578125 15.53125 21.875 16.546875 
L 31.453125 52.828125 
L 40.875 52.828125 
L 50.09375 16.546875 
Q 50.4375 15.28125 50.828125 13.671875 
Q 51.21875 12.0625 51.5625 10.640625 
Q 51.953125 8.984375 52.34375 7.28125 
Q 52.734375 9.125 53.125 10.890625 
Q 53.46875 12.40625 53.828125 14.03125 
Q 54.203125 15.671875 54.546875 16.9375 
L 63.875 52.828125 
L 72.46875 52.828125 
z
" id="LiberationSans-119"/>
     <path d="M 15.484375 43.796875 
Q 16.9375 46.484375 18.640625 48.359375 
Q 20.359375 50.25 22.40625 51.46875 
Q 24.46875 52.6875 26.90625 53.25 
Q 29.34375 53.8125 32.375 53.8125 
Q 37.453125 53.8125 40.703125 52.4375 
Q 43.953125 51.078125 45.828125 48.609375 
Q 47.703125 46.140625 48.40625 42.71875 
Q 49.125 39.3125 49.125 35.203125 
L 49.125 0 
L 40.28125 0 
L 40.28125 33.5 
Q 40.28125 36.859375 39.859375 39.390625 
Q 39.453125 41.9375 38.28125 43.625 
Q 37.109375 45.3125 34.953125 46.15625 
Q 32.8125 47.015625 29.390625 47.015625 
Q 26.265625 47.015625 23.75 45.890625 
Q 21.234375 44.78125 19.453125 42.71875 
Q 17.671875 40.671875 16.6875 37.734375 
Q 15.71875 34.8125 15.71875 31.15625 
L 15.71875 0 
L 6.9375 0 
L 6.9375 72.46875 
L 15.71875 72.46875 
L 15.71875 53.609375 
Q 15.71875 52 15.671875 50.390625 
Q 15.625 48.78125 15.546875 47.40625 
Q 15.484375 46.046875 15.421875 45.09375 
Q 15.375 44.140625 15.328125 43.796875 
z
" id="LiberationSans-104"/>
     <path d="M 73 34.71875 
Q 73 26.65625 70.671875 20.0625 
Q 68.359375 13.484375 63.96875 8.796875 
Q 59.578125 4.109375 53.21875 1.5625 
Q 46.875 -0.984375 38.8125 -0.984375 
Q 30.328125 -0.984375 23.921875 1.671875 
Q 17.53125 4.34375 13.28125 9.109375 
Q 9.03125 13.875 6.875 20.40625 
Q 4.734375 26.953125 4.734375 34.71875 
Q 4.734375 42.78125 6.984375 49.265625 
Q 9.234375 55.765625 13.578125 60.328125 
Q 17.921875 64.890625 24.296875 67.359375 
Q 30.671875 69.828125 38.921875 69.828125 
Q 47.125 69.828125 53.484375 67.328125 
Q 59.859375 64.84375 64.171875 60.25 
Q 68.5 55.671875 70.75 49.171875 
Q 73 42.671875 73 34.71875 
z
M 63.484375 34.71875 
Q 63.484375 40.921875 61.890625 46 
Q 60.296875 51.078125 57.203125 54.6875 
Q 54.109375 58.296875 49.515625 60.25 
Q 44.921875 62.203125 38.921875 62.203125 
Q 32.765625 62.203125 28.125 60.25 
Q 23.484375 58.296875 20.375 54.6875 
Q 17.28125 51.078125 15.734375 46 
Q 14.203125 40.921875 14.203125 34.71875 
Q 14.203125 28.515625 15.796875 23.359375 
Q 17.390625 18.21875 20.484375 14.484375 
Q 23.578125 10.75 28.1875 8.671875 
Q 32.8125 6.59375 38.8125 6.59375 
Q 45.265625 6.59375 49.921875 8.6875 
Q 54.59375 10.796875 57.59375 14.53125 
Q 60.59375 18.265625 62.03125 23.4375 
Q 63.484375 28.609375 63.484375 34.71875 
z
" id="LiberationSans-79"/>
     <path d="M 38.1875 0 
L 28.515625 0 
L 0.4375 68.796875 
L 10.25 68.796875 
L 29.296875 20.359375 
Q 30.03125 18.171875 30.765625 15.984375 
Q 31.5 13.8125 32.078125 12.109375 
Q 32.765625 10.109375 33.40625 8.203125 
Q 33.984375 10.015625 34.671875 12.015625 
Q 35.25 13.71875 35.953125 15.859375 
Q 36.671875 18.015625 37.5 20.359375 
L 56.453125 68.796875 
L 66.265625 68.796875 
z
" id="LiberationSans-86"/>
     <path d="M 9.234375 0 
L 9.234375 68.796875 
L 18.5625 68.796875 
L 18.5625 0 
z
" id="LiberationSans-73"/>
     <path d="M 4.4375 22.65625 
L 4.4375 30.46875 
L 28.859375 30.46875 
L 28.859375 22.65625 
z
" id="LiberationSans-45"/>
     <path d="M 50.875 35.796875 
Q 50.875 26.609375 49.140625 19.703125 
Q 47.40625 12.796875 44.1875 8.203125 
Q 40.96875 3.609375 36.34375 1.3125 
Q 31.734375 -0.984375 25.984375 -0.984375 
Q 22.015625 -0.984375 18.84375 -0.171875 
Q 15.671875 0.640625 13.171875 2.34375 
Q 10.6875 4.046875 8.921875 6.78125 
Q 7.171875 9.515625 6.109375 13.375 
L 14.5 14.703125 
Q 15.875 10.25 18.78125 8.171875 
Q 21.6875 6.109375 26.125 6.109375 
Q 29.6875 6.109375 32.640625 7.78125 
Q 35.59375 9.46875 37.671875 12.84375 
Q 39.75 16.21875 40.921875 21.296875 
Q 42.09375 26.375 42.1875 33.203125 
Q 41.15625 30.90625 39.375 29.09375 
Q 37.59375 27.296875 35.328125 26.046875 
Q 33.0625 24.8125 30.421875 24.140625 
Q 27.78125 23.484375 25.09375 23.484375 
Q 20.40625 23.484375 16.625 25.171875 
Q 12.84375 26.859375 10.203125 29.875 
Q 7.5625 32.90625 6.125 37.171875 
Q 4.6875 41.453125 4.6875 46.6875 
Q 4.6875 52 6.21875 56.296875 
Q 7.765625 60.59375 10.6875 63.59375 
Q 13.625 66.609375 17.890625 68.21875 
Q 22.171875 69.828125 27.59375 69.828125 
Q 39.0625 69.828125 44.96875 61.328125 
Q 50.875 52.828125 50.875 35.796875 
z
M 41.3125 44.28125 
Q 41.3125 48.09375 40.40625 51.453125 
Q 39.5 54.828125 37.71875 57.3125 
Q 35.9375 59.8125 33.328125 61.25 
Q 30.71875 62.703125 27.296875 62.703125 
Q 24.125 62.703125 21.578125 61.578125 
Q 19.046875 60.453125 17.28125 58.375 
Q 15.53125 56.296875 14.578125 53.3125 
Q 13.625 50.34375 13.625 46.6875 
Q 13.625 43.21875 14.46875 40.234375 
Q 15.328125 37.25 17.03125 35.078125 
Q 18.75 32.90625 21.28125 31.65625 
Q 23.828125 30.421875 27.203125 30.421875 
Q 29.640625 30.421875 32.15625 31.25 
Q 34.671875 32.078125 36.6875 33.78125 
Q 38.71875 35.5 40.015625 38.109375 
Q 41.3125 40.71875 41.3125 44.28125 
z
" id="LiberationSans-57"/>
    </defs>
    <g style="fill:#262626;" transform="translate(338.310469 20.244375)scale(0.18 -0.18)">
     <use xlink:href="#LiberationSans-71"/>
     <use x="77.783203" xlink:href="#LiberationSans-114"/>
     <use x="111.083984" xlink:href="#LiberationSans-111"/>
     <use x="166.699219" xlink:href="#LiberationSans-119"/>
     <use x="238.916016" xlink:href="#LiberationSans-116"/>
     <use x="266.699219" xlink:href="#LiberationSans-104"/>
     <use x="322.314453" xlink:href="#LiberationSans-32"/>
     <use x="350.097656" xlink:href="#LiberationSans-111"/>
     <use x="405.712891" xlink:href="#LiberationSans-102"/>
     <use x="433.496094" xlink:href="#LiberationSans-32"/>
     <use x="461.279297" xlink:href="#LiberationSans-67"/>
     <use x="533.496094" xlink:href="#LiberationSans-79"/>
     <use x="611.279297" xlink:href="#LiberationSans-86"/>
     <use x="677.978516" xlink:href="#LiberationSans-73"/>
     <use x="705.761719" xlink:href="#LiberationSans-68"/>
     <use x="777.978516" xlink:href="#LiberationSans-45"/>
     <use x="811.279297" xlink:href="#LiberationSans-49"/>
     <use x="866.894531" xlink:href="#LiberationSans-57"/>
    </g>
   </g>
   <g id="legend_1">
    <g id="line2d_40">
     <path d="M 770.982656 47.276719 
L 803.982656 47.276719 
" style="fill:none;stroke:#1f77b4;stroke-linecap:round;stroke-width:2.25;"/>
    </g>
    <g id="line2d_41"/>
    <g id="text_21">
     <!-- US -->
     <defs>
      <path d="M 35.6875 -0.984375 
Q 30.03125 -0.984375 24.953125 0.53125 
Q 19.875 2.046875 16.03125 5.25 
Q 12.203125 8.453125 9.953125 13.359375 
Q 7.71875 18.265625 7.71875 25 
L 7.71875 68.796875 
L 17.046875 68.796875 
L 17.046875 25.78125 
Q 17.046875 20.5625 18.4375 16.921875 
Q 19.828125 13.28125 22.3125 10.984375 
Q 24.8125 8.6875 28.203125 7.640625 
Q 31.59375 6.59375 35.640625 6.59375 
Q 39.65625 6.59375 43.21875 7.65625 
Q 46.78125 8.734375 49.46875 11.078125 
Q 52.15625 13.421875 53.6875 17.203125 
Q 55.21875 21 55.21875 26.421875 
L 55.21875 68.796875 
L 64.5 68.796875 
L 64.5 25.875 
Q 64.5 19 62.234375 13.9375 
Q 59.96875 8.890625 56.0625 5.5625 
Q 52.15625 2.25 46.90625 0.625 
Q 41.65625 -0.984375 35.6875 -0.984375 
z
" id="LiberationSans-85"/>
      <path d="M 62.109375 19 
Q 62.109375 14.65625 60.421875 10.984375 
Q 58.734375 7.328125 55.21875 4.65625 
Q 51.703125 2 46.359375 0.5 
Q 41.015625 -0.984375 33.6875 -0.984375 
Q 20.84375 -0.984375 13.671875 3.515625 
Q 6.5 8.015625 4.546875 16.5 
L 13.578125 18.3125 
Q 14.265625 15.625 15.671875 13.421875 
Q 17.09375 11.234375 19.5 9.640625 
Q 21.921875 8.0625 25.484375 7.171875 
Q 29.046875 6.296875 34.03125 6.296875 
Q 38.1875 6.296875 41.65625 7 
Q 45.125 7.71875 47.609375 9.171875 
Q 50.09375 10.640625 51.484375 12.953125 
Q 52.875 15.28125 52.875 18.5 
Q 52.875 21.875 51.34375 23.96875 
Q 49.8125 26.078125 47.015625 27.4375 
Q 44.234375 28.8125 40.375 29.734375 
Q 36.53125 30.671875 31.84375 31.734375 
Q 28.953125 32.375 26.046875 33.125 
Q 23.140625 33.890625 20.484375 34.9375 
Q 17.828125 35.984375 15.484375 37.390625 
Q 13.140625 38.8125 11.421875 40.796875 
Q 9.71875 42.78125 8.734375 45.390625 
Q 7.765625 48 7.765625 51.421875 
Q 7.765625 56.296875 9.734375 59.78125 
Q 11.71875 63.28125 15.234375 65.53125 
Q 18.75 67.78125 23.53125 68.796875 
Q 28.328125 69.828125 33.890625 69.828125 
Q 40.28125 69.828125 44.8125 68.828125 
Q 49.359375 67.828125 52.484375 65.8125 
Q 55.609375 63.8125 57.484375 60.859375 
Q 59.375 57.90625 60.5 54 
L 51.3125 52.390625 
Q 50.640625 54.890625 49.34375 56.84375 
Q 48.046875 58.796875 45.9375 60.109375 
Q 43.84375 61.421875 40.84375 62.109375 
Q 37.84375 62.796875 33.796875 62.796875 
Q 29 62.796875 25.75 61.9375 
Q 22.515625 61.078125 20.53125 59.609375 
Q 18.5625 58.15625 17.703125 56.171875 
Q 16.84375 54.203125 16.84375 51.90625 
Q 16.84375 48.828125 18.375 46.84375 
Q 19.921875 44.875 22.5625 43.546875 
Q 25.203125 42.234375 28.65625 41.359375 
Q 32.125 40.484375 36.03125 39.59375 
Q 39.203125 38.875 42.359375 38.109375 
Q 45.515625 37.359375 48.390625 36.296875 
Q 51.265625 35.25 53.78125 33.828125 
Q 56.296875 32.421875 58.15625 30.375 
Q 60.015625 28.328125 61.0625 25.53125 
Q 62.109375 22.75 62.109375 19 
z
" id="LiberationSans-83"/>
     </defs>
     <g style="fill:#262626;" transform="translate(817.182656 53.051719)scale(0.165 -0.165)">
      <use xlink:href="#LiberationSans-85"/>
      <use x="72.216797" xlink:href="#LiberationSans-83"/>
     </g>
    </g>
    <g id="line2d_42">
     <path d="M 770.982656 70.907812 
L 803.982656 70.907812 
" style="fill:none;stroke:#ff7f0e;stroke-linecap:round;stroke-width:2.25;"/>
    </g>
    <g id="line2d_43"/>
    <g id="text_22">
     <!-- United Kingdom -->
     <defs>
      <path d="M 54 0 
L 26.515625 33.203125 
L 17.53125 26.375 
L 17.53125 0 
L 8.203125 0 
L 8.203125 68.796875 
L 17.53125 68.796875 
L 17.53125 34.328125 
L 50.6875 68.796875 
L 61.671875 68.796875 
L 32.375 38.921875 
L 65.578125 0 
z
" id="LiberationSans-75"/>
      <path d="M 26.765625 -20.75 
Q 22.21875 -20.75 18.703125 -19.8125 
Q 15.1875 -18.890625 12.6875 -17.15625 
Q 10.203125 -15.4375 8.640625 -13.03125 
Q 7.078125 -10.640625 6.390625 -7.71875 
L 15.234375 -6.453125 
Q 16.109375 -10.109375 19.109375 -12.078125 
Q 22.125 -14.0625 27 -14.0625 
Q 29.984375 -14.0625 32.421875 -13.234375 
Q 34.859375 -12.40625 36.5625 -10.5625 
Q 38.28125 -8.734375 39.203125 -5.796875 
Q 40.140625 -2.875 40.140625 1.3125 
L 40.140625 9.8125 
L 40.046875 9.8125 
Q 39.0625 7.8125 37.625 5.984375 
Q 36.1875 4.15625 34.109375 2.734375 
Q 32.03125 1.3125 29.296875 0.453125 
Q 26.5625 -0.390625 23.046875 -0.390625 
Q 18.015625 -0.390625 14.421875 1.296875 
Q 10.84375 2.984375 8.5625 6.34375 
Q 6.296875 9.71875 5.25 14.71875 
Q 4.203125 19.734375 4.203125 26.3125 
Q 4.203125 32.671875 5.25 37.75 
Q 6.296875 42.828125 8.65625 46.359375 
Q 11.03125 49.90625 14.8125 51.78125 
Q 18.609375 53.65625 24.03125 53.65625 
Q 29.640625 53.65625 33.765625 51.09375 
Q 37.890625 48.53125 40.140625 43.796875 
L 40.234375 43.796875 
Q 40.234375 45.015625 40.296875 46.53125 
Q 40.375 48.046875 40.453125 49.390625 
Q 40.53125 50.734375 40.625 51.703125 
Q 40.71875 52.6875 40.828125 52.828125 
L 49.171875 52.828125 
Q 49.125 52.390625 49.078125 51.34375 
Q 49.03125 50.296875 48.96875 48.828125 
Q 48.921875 47.359375 48.890625 45.578125 
Q 48.875 43.796875 48.875 41.890625 
L 48.875 1.515625 
Q 48.875 -9.578125 43.421875 -15.15625 
Q 37.984375 -20.75 26.765625 -20.75 
z
M 40.140625 26.421875 
Q 40.140625 31.9375 38.9375 35.859375 
Q 37.75 39.796875 35.796875 42.28125 
Q 33.84375 44.78125 31.328125 45.953125 
Q 28.8125 47.125 26.171875 47.125 
Q 22.796875 47.125 20.375 45.953125 
Q 17.96875 44.78125 16.375 42.265625 
Q 14.796875 39.75 14.03125 35.8125 
Q 13.28125 31.890625 13.28125 26.421875 
Q 13.28125 20.703125 14.03125 16.8125 
Q 14.796875 12.9375 16.359375 10.546875 
Q 17.921875 8.15625 20.3125 7.125 
Q 22.703125 6.109375 26.03125 6.109375 
Q 28.65625 6.109375 31.171875 7.21875 
Q 33.6875 8.34375 35.6875 10.78125 
Q 37.703125 13.234375 38.921875 17.09375 
Q 40.140625 20.953125 40.140625 26.421875 
z
" id="LiberationSans-103"/>
     </defs>
     <g style="fill:#262626;" transform="translate(817.182656 76.682812)scale(0.165 -0.165)">
      <use xlink:href="#LiberationSans-85"/>
      <use x="72.216797" xlink:href="#LiberationSans-110"/>
      <use x="127.832031" xlink:href="#LiberationSans-105"/>
      <use x="150.048828" xlink:href="#LiberationSans-116"/>
      <use x="177.832031" xlink:href="#LiberationSans-101"/>
      <use x="233.447266" xlink:href="#LiberationSans-100"/>
      <use x="289.0625" xlink:href="#LiberationSans-32"/>
      <use x="316.845703" xlink:href="#LiberationSans-75"/>
      <use x="383.544922" xlink:href="#LiberationSans-105"/>
      <use x="405.761719" xlink:href="#LiberationSans-110"/>
      <use x="461.376953" xlink:href="#LiberationSans-103"/>
      <use x="516.992188" xlink:href="#LiberationSans-100"/>
      <use x="572.607422" xlink:href="#LiberationSans-111"/>
      <use x="628.222656" xlink:href="#LiberationSans-109"/>
     </g>
    </g>
    <g id="line2d_44">
     <path d="M 770.982656 94.538906 
L 803.982656 94.538906 
" style="fill:none;stroke:#2ca02c;stroke-linecap:round;stroke-width:2.25;"/>
    </g>
    <g id="line2d_45"/>
    <g id="text_23">
     <!-- Italy -->
     <g style="fill:#262626;" transform="translate(817.182656 100.313906)scale(0.165 -0.165)">
      <use xlink:href="#LiberationSans-73"/>
      <use x="27.783203" xlink:href="#LiberationSans-116"/>
      <use x="55.566406" xlink:href="#LiberationSans-97"/>
      <use x="111.181641" xlink:href="#LiberationSans-108"/>
      <use x="133.398438" xlink:href="#LiberationSans-121"/>
     </g>
    </g>
    <g id="line2d_46">
     <path d="M 770.982656 118.17 
L 803.982656 118.17 
" style="fill:none;stroke:#d62728;stroke-linecap:round;stroke-width:2.25;"/>
    </g>
    <g id="line2d_47"/>
    <g id="text_24">
     <!-- Spain -->
     <defs>
      <path d="M 51.421875 26.65625 
Q 51.421875 20.65625 50.4375 15.578125 
Q 49.46875 10.5 47.1875 6.828125 
Q 44.921875 3.171875 41.1875 1.09375 
Q 37.453125 -0.984375 31.984375 -0.984375 
Q 26.3125 -0.984375 22.0625 1.171875 
Q 17.828125 3.328125 15.578125 8.203125 
L 15.328125 8.203125 
Q 15.375 8.109375 15.40625 7.328125 
Q 15.4375 6.546875 15.453125 5.375 
Q 15.484375 4.203125 15.5 2.75 
Q 15.53125 1.3125 15.53125 -0.09375 
L 15.53125 -20.75 
L 6.734375 -20.75 
L 6.734375 42.046875 
Q 6.734375 43.953125 6.703125 45.703125 
Q 6.6875 47.46875 6.640625 48.90625 
Q 6.59375 50.34375 6.546875 51.359375 
Q 6.5 52.390625 6.453125 52.828125 
L 14.9375 52.828125 
Q 14.984375 52.6875 15.0625 51.796875 
Q 15.140625 50.921875 15.203125 49.671875 
Q 15.28125 48.4375 15.359375 47.015625 
Q 15.4375 45.609375 15.4375 44.34375 
L 15.625 44.34375 
Q 16.84375 46.875 18.40625 48.65625 
Q 19.96875 50.4375 21.96875 51.578125 
Q 23.96875 52.734375 26.4375 53.25 
Q 28.90625 53.765625 31.984375 53.765625 
Q 37.453125 53.765625 41.1875 51.8125 
Q 44.921875 49.859375 47.1875 46.3125 
Q 49.46875 42.78125 50.4375 37.765625 
Q 51.421875 32.765625 51.421875 26.65625 
z
M 42.1875 26.46875 
Q 42.1875 31.34375 41.59375 35.15625 
Q 41.015625 38.96875 39.578125 41.59375 
Q 38.140625 44.234375 35.734375 45.59375 
Q 33.34375 46.96875 29.734375 46.96875 
Q 26.8125 46.96875 24.21875 46.140625 
Q 21.625 45.3125 19.703125 42.96875 
Q 17.78125 40.625 16.65625 36.5 
Q 15.53125 32.375 15.53125 25.78125 
Q 15.53125 20.171875 16.453125 16.28125 
Q 17.390625 12.40625 19.171875 10.015625 
Q 20.953125 7.625 23.578125 6.5625 
Q 26.21875 5.515625 29.640625 5.515625 
Q 33.296875 5.515625 35.71875 6.921875 
Q 38.140625 8.34375 39.578125 11.03125 
Q 41.015625 13.71875 41.59375 17.59375 
Q 42.1875 21.484375 42.1875 26.46875 
z
" id="LiberationSans-112"/>
     </defs>
     <g style="fill:#262626;" transform="translate(817.182656 123.945)scale(0.165 -0.165)">
      <use xlink:href="#LiberationSans-83"/>
      <use x="66.699219" xlink:href="#LiberationSans-112"/>
      <use x="122.314453" xlink:href="#LiberationSans-97"/>
      <use x="177.929688" xlink:href="#LiberationSans-105"/>
      <use x="200.146484" xlink:href="#LiberationSans-110"/>
     </g>
    </g>
    <g id="line2d_48">
     <path d="M 770.982656 141.801094 
L 803.982656 141.801094 
" style="fill:none;stroke:#9467bd;stroke-linecap:round;stroke-width:2.25;"/>
    </g>
    <g id="line2d_49"/>
    <g id="text_25">
     <!-- Korea, South -->
     <defs>
      <path d="M 18.796875 10.6875 
L 18.796875 2.484375 
Q 18.796875 -0.09375 18.578125 -2.21875 
Q 18.359375 -4.34375 17.875 -6.171875 
Q 17.390625 -8.015625 16.671875 -9.625 
Q 15.96875 -11.234375 14.984375 -12.796875 
L 8.984375 -12.796875 
Q 11.1875 -9.625 12.375 -6.390625 
Q 13.578125 -3.171875 13.578125 0 
L 9.28125 0 
L 9.28125 10.6875 
z
" id="LiberationSans-44"/>
      <path d="M 15.328125 52.828125 
L 15.328125 19.34375 
Q 15.328125 15.484375 15.890625 12.890625 
Q 16.453125 10.296875 17.71875 8.703125 
Q 19 7.125 21.0625 6.46875 
Q 23.140625 5.8125 26.21875 5.8125 
Q 29.34375 5.8125 31.859375 6.90625 
Q 34.375 8.015625 36.15625 10.078125 
Q 37.9375 12.15625 38.90625 15.203125 
Q 39.890625 18.265625 39.890625 22.21875 
L 39.890625 52.828125 
L 48.6875 52.828125 
L 48.6875 11.28125 
Q 48.6875 9.625 48.703125 7.78125 
Q 48.734375 5.953125 48.78125 4.3125 
Q 48.828125 2.6875 48.875 1.515625 
Q 48.921875 0.34375 48.96875 0 
L 40.671875 0 
Q 40.625 0.25 40.578125 1.3125 
Q 40.53125 2.390625 40.453125 3.78125 
Q 40.375 5.171875 40.328125 6.609375 
Q 40.28125 8.0625 40.28125 9.03125 
L 40.140625 9.03125 
Q 38.875 6.734375 37.359375 4.875 
Q 35.84375 3.03125 33.84375 1.734375 
Q 31.84375 0.4375 29.25 -0.265625 
Q 26.65625 -0.984375 23.25 -0.984375 
Q 18.84375 -0.984375 15.671875 0.09375 
Q 12.5 1.171875 10.453125 3.421875 
Q 8.40625 5.671875 7.453125 9.1875 
Q 6.5 12.703125 6.5 17.625 
L 6.5 52.828125 
z
" id="LiberationSans-117"/>
     </defs>
     <g style="fill:#262626;" transform="translate(817.182656 147.576094)scale(0.165 -0.165)">
      <use xlink:href="#LiberationSans-75"/>
      <use x="66.699219" xlink:href="#LiberationSans-111"/>
      <use x="122.314453" xlink:href="#LiberationSans-114"/>
      <use x="155.615234" xlink:href="#LiberationSans-101"/>
      <use x="211.230469" xlink:href="#LiberationSans-97"/>
      <use x="266.845703" xlink:href="#LiberationSans-44"/>
      <use x="294.628906" xlink:href="#LiberationSans-32"/>
      <use x="322.412109" xlink:href="#LiberationSans-83"/>
      <use x="389.111328" xlink:href="#LiberationSans-111"/>
      <use x="444.726562" xlink:href="#LiberationSans-117"/>
      <use x="500.341797" xlink:href="#LiberationSans-116"/>
      <use x="528.125" xlink:href="#LiberationSans-104"/>
     </g>
    </g>
   </g>
  </g>
 </g>
 <defs>
  <clipPath id="pde8ce3dced">
   <rect height="543.6" width="669.6" x="86.532656" y="26.244375"/>
  </clipPath>
 </defs>
</svg>
